<?xml version="1.0" encoding="UTF-8" standalone="no" ?>
<!DOCTYPE svg PUBLIC "-//W3C//DTD SVG 1.1//EN" "http://www.w3.org/Graphics/SVG/1.1/DTD/svg11.dtd">
<svg xmlns="http://www.w3.org/2000/svg" xmlns:xlink="http://www.w3.org/1999/xlink" version="1.1" width="1280" height="1024" viewBox="0 0 1280 1024" xml:space="preserve">
<desc>Created with Fabric.js 3.6.3</desc>
<defs>
</defs>
<g transform="matrix(1.966205837173579 0 0 1.966205837173579 640.2456813819579 512.1966205837176)" id="background-logo"  >
<rect style="stroke: none; stroke-width: 1; stroke-dasharray: none; stroke-linecap: butt; stroke-dashoffset: 0; stroke-linejoin: miter; stroke-miterlimit: 4; fill: rgb(57,57,76); fill-rule: nonzero; opacity: 1;"  paint-order="stroke"  x="-325" y="-260" rx="0" ry="0" width="650" height="520" />
</g>
<g transform="matrix(2.582792208208781 0 0 2.582792208208781 640.2456813819579 512.1966205837175)" id="logo-logo"  >
<g style=""  paint-order="stroke"   >
		<g transform="matrix(0.3348173055025625 0 0 -0.33481730550256256 0 -2.842171e-14)"  >
<path style="stroke: none; stroke-width: 1; stroke-dasharray: none; stroke-linecap: butt; stroke-dashoffset: 0; stroke-linejoin: miter; stroke-miterlimit: 4; fill: rgb(210,156,72); fill-rule: nonzero; opacity: 1;"  paint-order="stroke"  transform=" translate(-774.329731928832, -719.9622802339084)" d="m 794.199 632.711 c -14.375 -8.414 -25.804 -8.43 -40.172 -0.004 c -49.984 29.297 -100.148 58.297 -150.398 87.133 c 50.387 28.926 100.707 57.961 150.836 87.332 c 14.371 8.418 25.801 8.43 40.168 0.004 c 49.984 -29.293 100.144 -58.297 150.402 -87.137 C 894.648 691.117 844.324 662.078 794.199 632.711 Z M 638.68 405.73 c 0.175 -17.25 -5.739 -24.242 -23.371 -23.675 c -29.09 0.933 -58.231 -0.051 -87.352 0.308 c -26.898 0.332 -29.961 3.231 -30.074 31.016 c -0.313 73.816 0.469 147.648 -0.5 221.457 c -0.238 18.414 7.363 28.406 22.293 36.918 c 3.082 1.758 6.16 3.535 9.246 5.297 c 37.019 -21.176 72.723 -41.731 109.582 -63.184 v 0 z m 271.3 628.43 c -0.171 17.25 5.739 24.23 23.372 23.67 c 29.086 -0.93 58.234 0.05 87.348 -0.31 c 26.9 -0.33 29.96 -3.23 30.07 -31.02 c 0.32 -73.812 -0.46 -147.645 0.5 -221.453 c 0.25 -18.414 -7.36 -28.406 -22.28 -36.918 c -3.08 -1.758 -6.16 -3.535 -9.25 -5.293 c -37.017 21.172 -73.974 42.449 -110.834 63.91 v 0 c 0 0 1.719 146.07 1.074 207.414 z m 182.45 -313.988 c 24.52 19.43 34.85 45.387 34.74 78.578 c -0.26 81.113 0.28 162.234 -0.19 243.35 c -0.34 61.78 -30.65 91.55 -92.42 91.79 c -54.044 0.22 -108.076 0.15 -162.115 0.01 c -34.601 -0.09 -34.843 -0.32 -34.929 -34.86 c -0.149 -59.26 0.093 -118.528 -0.125 -177.786 c -0.11 -30.051 -3.828 -31.899 -28.536 -31.899 h -68.722 c -21.11 0 -24.602 7.508 -24.32 26.137 c 0.945 62.375 0.539 124.768 0.246 187.158 c -0.118 24.19 -2.852 29.72 -22.215 30.89 v 0.53 h -256.59 c -8.676 0 -15.707 -7.03 -15.707 -15.71 v -45.25 c 0 -8.67 7.031 -15.71 15.707 -15.71 l 173.941 0.17 c 28.817 -0.26 29.778 -0.35 30.137 -29.22 c 0.75 -59.229 0.438 -118.467 0.391 -177.702 c -0.012 -9.992 0.082 -23.144 0.082 -23.144 C 603.918 805.402 461.023 723.512 456.234 719.715 C 431.707 700.281 421.367 674.324 421.48 641.133 c 0.274 -81.113 -0.269 -162.235 0.196 -243.348 c 0.347 -61.785 30.652 -91.555 92.426 -91.797 c 54.043 -0.207 108.074 -0.144 162.117 -0.008 c 34.594 0.09 34.836 0.325 34.929 34.864 c 0.145 59.258 -0.101 118.527 0.114 177.789 c 0.117 30.051 2.39 31.812 29.031 31.519 h 68.016 c 19.754 0.078 24.816 -7.132 24.539 -25.761 c -0.946 -62.375 -0.539 -124.77 -0.246 -187.157 c 0.113 -24.195 2.847 -29.718 22.214 -30.894 v 0 h 0.004 c 2.453 -0.149 256.58 -0.406 256.58 -0.406 c 8.68 0 15.71 7.031 15.71 15.707 v 45.25 c 0 8.675 -7.03 15.707 -15.71 15.707 H 924.59 c -16.25 0.922 -16.969 5.203 -17.262 28.941 c -0.75 59.223 -0.191 201.004 -0.191 201.004 c 37.883 22.102 180.503 103.832 185.293 107.629" stroke-linecap="round" />
</g>
</g>
</g>
</svg>